<svg width="65" height="71" viewBox="0 0 65 71" fill="none" xmlns="http://www.w3.org/2000/svg">
<path d="M58.6177 9C54.4453 15.7837 51.6543 21.5912 50.2171 23.3882C46.7179 27.7632 40.1657 32.1526 38.2303 34.1407C37.579 34.8097 37.4641 36.3953 37.4072 38.2133C37.3699 39.4074 37.8363 40.494 38.7574 41.7215C41.182 44.9529 44.921 46.1599 45.2852 46.9052C46.3724 49.1309 40.0011 53.2353 35.7545 56.3752C33.8369 57.7931 31.8684 58.2138 29.9195 59.0392C29.2795 59.4742 28.4625 60.1862 27.9227 60.6985C27.3828 61.2109 27.1449 61.5021 26.8331 61.9724" stroke="black" stroke-width="2.5" stroke-linecap="round"/>
<path d="M40.9955 52.5406V63.9076" stroke="black" stroke-width="2.5" stroke-linecap="round"/>
<path d="M55.4274 14.6773C55.4274 14.6471 48.7412 14.6163 38.3631 14.7832C34.6672 14.8426 34.1762 15.3449 32.033 18.3385C29.8898 21.3321 26.1132 26.9282 23.9555 30.0476C20.4641 34.4863 18.7494 35.4779 17.3889 35.9087C16.7857 36.0771 16.3596 36.1435 15.0767 36.2149" stroke="black" stroke-width="2.5" stroke-linecap="round"/>
<path d="M29.5219 23.3303V38.9986" stroke="black" stroke-width="2.5" stroke-linecap="round"/>
<path d="M15.1966 36.1084C13.8837 36.1084 10.6368 36.5491 9.38821 37.823C7.53471 39.714 8.04426 42.4607 8.12341 44.5253C8.15382 45.3183 8.62082 45.5437 9.06276 45.7315C9.99475 46.1276 11.363 46.193 12.755 46.1023C14.5109 45.9878 15.4677 43.5376 16.7167 40.4085C16.8974 39.4389 16.9013 38.3586 16.7907 37.643C16.6801 36.9274 16.4548 36.6093 15.971 36.0773" stroke="black" stroke-width="2.5" stroke-linecap="round"/>
<path d="M28.8164 39.1675C28.7586 39.2109 28.0165 39.4145 26.779 39.9564C23.3482 41.4587 25.822 46.3912 26.4586 47.4029C27.1137 48.4441 28.84 48.764 30.5226 48.9485C31.4557 49.0508 32.5723 49.0168 33.2165 48.6999C34.0044 47.7448 34.1525 45.205 33.8628 42.0959C33.5731 40.869 30.9955 39.8547 29.5 38.5" stroke="black" stroke-width="2.5" stroke-linecap="round"/>
</svg>
