<svg width="65" height="71" viewBox="0 0 65 71" fill="none" xmlns="http://www.w3.org/2000/svg">
<path d="M31.525 18.6338C32.0653 18.8852 32.6088 19.0327 33.0875 19.124C32.9875 19.2536 32.8863 19.3866 32.7916 19.5195C32.5284 19.889 32.2201 20.3727 32.0631 20.8896C31.5968 22.4265 32.2065 23.8513 32.902 24.6533C33.0141 24.7826 33.1313 24.9002 33.2516 25.0088C33.2535 26.1765 33.2871 27.4777 33.3639 28.8535C33.4024 29.5428 32.8744 30.1324 32.1852 30.1709C31.4962 30.2092 30.9064 29.6822 30.8678 28.9932C30.6951 25.8983 30.7233 23.1159 30.8805 21.2861L30.8844 21.2373L30.8922 21.1895C31.0347 20.3235 31.2528 19.4736 31.525 18.6338Z" fill="black"/>
<path d="M22.3584 46.6836C23.7338 47.0559 25.3048 47.3847 27.0244 47.7637C30.2091 48.4654 33.6809 48.4531 37.5703 48.4678C38.5429 48.4714 39.6243 48.481 41.0898 49.0166C42.5131 49.5368 44.2359 50.5269 46.6318 52.3555C49.0672 54.2141 51.188 56.3569 53.1816 58.4785C55.1972 60.6235 57.0514 62.7108 59.0439 64.5898C59.546 65.0633 59.5689 65.8552 59.0957 66.3574C58.6221 66.8593 57.8313 66.8825 57.3291 66.4092C55.2632 64.461 53.3111 62.2665 51.3604 60.1904C49.3878 58.0912 47.381 56.0721 45.1152 54.3428C42.8104 52.5837 41.317 51.7621 40.2314 51.3652C39.1887 50.9841 38.466 50.9712 37.5605 50.9678C33.7549 50.9534 29.9869 50.9764 26.4863 50.2051C25.0117 49.8801 23.5487 49.5714 22.2168 49.2305C22.4054 48.7276 22.4505 48.2162 22.4648 47.7949C22.4779 47.4096 22.4328 47.0365 22.3584 46.6836ZM12.1865 23.3945C12.8765 23.3948 13.4363 23.9545 13.4365 24.6445C13.4365 24.6939 13.4364 26.8307 13.4512 30.4297C13.4206 30.4209 13.3907 30.4103 13.3604 30.4023C12.5163 30.1816 11.7051 30.3198 10.9512 30.6074C10.9357 26.9034 10.9365 24.6974 10.9365 24.6445C10.9368 23.9544 11.4963 23.3945 12.1865 23.3945Z" fill="black"/>
<path d="M20.4008 13.2217C20.4609 19.1551 22.4854 21.6514 24.7404 23.7839C27.7978 26.6753 30.4139 26.8863 31.5175 28.0664C32.0822 28.6702 33.8942 33.5401 36.6518 40.5452C38.5514 44.7731 39.1426 45.767 39.8047 46.8639C40.2706 47.6638 41.0002 48.9575 41.9706 50.6372" stroke="black" stroke-width="2.5" stroke-linecap="round"/>
<path d="M51.2037 58.522C51.1773 58.522 51.1509 58.522 45.9498 58.6789C40.7486 58.8358 30.3736 59.1495 24.5316 59.2628C17.6952 59.2792 16.1988 59.1082 15.0506 58.8811C14.3741 58.7254 13.5072 58.4873 12.6141 58.242" stroke="black" stroke-width="2.5" stroke-linecap="round"/>
<path d="M21.5017 59.6329C21.5281 59.6329 21.5268 60.0276 21.4022 60.8177C21.0889 61.5973 20.5776 62.53 20.0194 63.4792C19.7627 63.8915 19.5598 64.163 19.3055 64.4841" stroke="black" stroke-width="2.5" stroke-linecap="round"/>
<path d="M31.161 11.5742C32.6591 11.4715 35.8435 11.4303 35.8435 11.4503C35.3834 10.8496 35.2274 10.5931 35.1551 10.0074C35.0829 9.42176 35.094 8.53392 35.1544 7.94852C35.6374 6.62112 36.6784 4.97006 38.1934 5.00041C40.6565 5.04976 42.2609 5.19007 43.0589 6.18347C43.4432 6.66179 43.698 7.27521 43.5296 8.03351C43.0467 10.208 41.437 13.2215 42.1995 12.8725C42.7608 12.6156 43.7144 12.2327 44.623 12.4277C45.3006 12.5732 45.9522 12.8342 46.4349 13.4301C47.5026 14.7481 48.5414 16.1127 48.0688 17.8526C47.7137 19.16 47.2208 21.0743 45.8663 21.054C44.2542 21.0298 41.2757 19.4492 41.0725 20.6271C40.9055 21.5956 40.7708 23.0539 40.0058 24.0153C39.5424 24.5976 39.0818 25.0115 38.3811 24.9998C36.4271 24.9671 34.8529 24.9957 33.846 23.8348C33.3524 23.2656 32.949 22.2748 33.259 21.253C33.6408 19.9947 35.8388 18.21 34.9896 18.098C34.2552 18.001 32.6699 18.0094 31.4813 17.1767C30.9217 16.7845 30.2787 16.3186 30.2451 15.5821C30.2014 14.6227 30.1046 13.4123 30.326 12.3602C30.418 11.9226 30.5836 11.6138 31.161 11.5742Z" stroke="black" stroke-width="2.5" stroke-linecap="round" stroke-linejoin="round"/>
<path d="M6.69967 43.0294C7.8417 42.0544 10.3747 40.1243 10.3866 40.1403C9.65926 39.932 9.38114 39.8189 8.9742 39.3915C8.56726 38.9642 8.04726 38.2445 7.747 37.7383C7.34415 36.3845 7.19663 34.4382 8.4315 33.56C10.4392 32.1323 11.8114 31.2891 13.0442 31.6116C13.6377 31.7668 14.2079 32.1077 14.5244 32.817C15.432 34.8513 15.9344 38.2306 16.3389 37.496C16.6366 36.9552 17.1745 36.0796 18.0204 35.6949C18.6513 35.4081 19.3301 35.2296 20.0729 35.4206C21.7155 35.8431 23.3629 36.3203 24.0198 37.9993C24.5135 39.2608 25.2581 41.092 24.1581 41.8826C22.8489 42.8236 19.515 43.3286 20.0535 44.3956C20.4964 45.273 21.2571 46.5245 21.2153 47.7524C21.1901 48.4962 21.0666 49.103 20.4969 49.511C18.908 50.649 17.6608 51.6097 16.1604 51.2771C15.4249 51.1141 14.5106 50.5586 14.1508 49.5533C13.7079 48.3152 14.41 45.5723 13.6612 45.9882C13.0136 46.3479 11.7454 47.2991 10.2946 47.3383C9.61148 47.3568 8.81751 47.3656 8.35178 46.7941C7.74503 46.0496 6.94623 45.1351 6.49724 44.1582C6.31046 43.7518 6.25949 43.4052 6.69967 43.0294Z" stroke="black" stroke-width="2.5" stroke-linecap="round" stroke-linejoin="round"/>
</svg>
