<svg width="65" height="71" viewBox="0 0 65 71" fill="none" xmlns="http://www.w3.org/2000/svg">
<path d="M10.1307 64.39C13.2046 62.4585 21.6919 57.4639 25.7891 55.4819C27.2929 54.7545 27.6209 54.5762 27.7265 52.0967C27.8321 49.6172 27.7034 44.8378 27.0752 39.8199C26.447 34.8019 25.3233 29.6902 24.2819 25.7111C21.2541 15.6833 21.0337 14.1034 21.0644 13.6981C21.0952 13.688 21.1566 14.0751 21.22 14.4739" stroke="black" stroke-width="2.5" stroke-linecap="round"/>
<path d="M26.0515 34.0983C26.0515 34.0546 26.0515 34.0109 26.1689 32.6255C26.2864 31.24 26.5212 28.5142 27.8661 23.6935C29.2109 18.8728 31.6587 12.0399 34.1807 5" stroke="black" stroke-width="2.5" stroke-linecap="round"/>
<path d="M40.9432 35.7205C40.9806 36.116 41.0336 36.4906 41.1111 36.8191C41.2497 37.4063 41.4673 37.8641 41.7352 38.2341C38.6873 40.4603 36.1291 42.4738 34.2068 44.0681C33.0968 44.9888 32.2029 45.7661 31.5526 46.3611C30.8674 46.9879 30.5302 47.3433 30.4529 47.447C30.0404 48 29.2573 48.1141 28.7039 47.7019C28.1507 47.2894 28.0369 46.5063 28.449 45.9529C28.6926 45.6262 29.2128 45.1141 29.8651 44.5173C30.5527 43.8882 31.4788 43.0834 32.6111 42.1443C34.7164 40.3982 37.5542 38.1723 40.9432 35.7205ZM48.1385 10.572C48.4 9.93335 49.1296 9.62724 49.7684 9.88843C50.4072 10.15 50.7135 10.8804 50.452 11.5193C49.613 13.5686 49.0738 15.0578 48.366 18.5701C47.9365 21.0256 47.5333 23.3029 47.1365 25.365C46.4601 25.6003 45.8221 25.8611 45.2459 26.1541C44.9329 26.3132 44.6222 26.4912 44.324 26.6882C44.8311 24.2201 45.3431 21.3438 45.909 18.1082L45.9149 18.0769C46.6569 14.3946 47.2455 12.7534 48.1385 10.572Z" fill="black"/>
<path d="M43.375 29.9061C43.2156 31.0092 42.0914 33.504 42.0914 33.5385C42.1213 34.6757 42.1503 35.7796 42.3277 36.5315C42.5051 37.2834 42.8212 37.6716 43.1798 37.944C43.9277 38.3687 46.1421 38.9674 48.9341 38.2805C50.7303 37.8386 52.2511 36.9895 53.6795 35.1175C57.1564 30.5609 60.421 26.1809 58.3566 25.677C57.2523 25.4074 54.309 24.8726 50.8687 25.6335C47.0603 26.4758 43.6899 27.7268 43.375 29.9061Z" stroke="black" stroke-width="2.5" stroke-linecap="round"/>
<path d="M20.429 45.2071C21.4406 44.7393 24.145 44.3216 24.1738 44.3028C25.1109 43.6577 26.0205 43.0316 26.5541 42.4729C27.0877 41.9143 27.2407 41.4376 27.2737 40.9884C27.2219 40.13 26.5165 37.9473 24.4185 35.9812C23.0688 34.7164 21.5278 33.9044 19.1797 33.7276C13.4643 33.2971 8.0126 32.9483 8.7157 34.9537C9.0918 36.0264 10.2481 38.7854 12.7616 41.2545C15.5441 43.9879 18.4304 46.1313 20.429 45.2071Z" stroke="black" stroke-width="2.5" stroke-linecap="round"/>
</svg>
