<svg width="21" height="23" viewBox="0 0 21 23" fill="none" xmlns="http://www.w3.org/2000/svg">
<path d="M2.22488 7.8242C3.72299 7.72148 6.9073 7.68033 6.9073 7.70028C6.44722 7.09964 6.29124 6.84308 6.21898 6.25742C6.14672 5.67177 6.15784 4.78394 6.21822 4.19853C6.70124 2.87113 7.74224 1.22008 9.25722 1.25043C11.7203 1.29977 13.3248 1.44008 14.1228 2.43348C14.507 2.9118 14.7618 3.52522 14.5935 4.28352C14.1106 6.45806 12.5008 9.47155 13.2634 9.12249C13.8246 8.86558 14.7783 8.48273 15.6869 8.67774C16.3645 8.82317 17.016 9.08425 17.4988 9.68015C18.5664 10.9981 19.6052 12.3627 19.1326 14.1026C18.7775 15.41 18.2847 17.3244 16.9301 17.304C15.318 17.2798 12.3395 15.6992 12.1364 16.8771C11.9693 17.8456 11.8347 19.304 11.0697 20.2653C10.6063 20.8476 10.1456 21.2615 9.44499 21.2498C7.49089 21.2171 5.91679 21.2457 4.90988 20.0848C4.41623 19.5156 4.01281 18.5248 4.32283 17.503C4.70463 16.2447 6.90263 14.46 6.05346 14.348C5.31901 14.251 3.73377 14.2594 2.54518 13.4267C1.9855 13.0346 1.34256 12.5686 1.30897 11.8321C1.26521 10.8727 1.16844 9.66232 1.3898 8.61024C1.48188 8.17257 1.64746 7.86379 2.22488 7.8242Z" fill="#EFF3E6" stroke="#819B69" stroke-width="2.5" stroke-linecap="round" stroke-linejoin="round"/>
</svg>
