<svg width="11" height="13" viewBox="0 0 11 13" fill="none" xmlns="http://www.w3.org/2000/svg">
<path d="M5.63757 2.8407C5.74069 2.88891 5.84414 2.91805 5.93542 2.93542C5.9163 2.96018 5.8959 2.98522 5.87781 3.01062C5.82764 3.08108 5.76907 3.17385 5.73914 3.27234C5.65036 3.56559 5.76657 3.83807 5.89929 3.99109C5.92057 4.01559 5.94287 4.03786 5.9657 4.05847C5.96616 4.28151 5.9735 4.53016 5.98816 4.79285C5.99518 4.92406 5.89378 5.03628 5.76257 5.04382C5.63121 5.05102 5.51911 4.95055 5.5116 4.81921C5.47863 4.2284 5.48353 3.69683 5.51355 3.34753L5.51453 3.33875L5.51648 3.32898C5.54374 3.1635 5.58553 3.00116 5.63757 2.8407Z" fill="black"/>
<path d="M3.8847 8.19348C4.14789 8.26467 4.44809 8.32992 4.77728 8.40247C5.3851 8.53636 6.0477 8.53443 6.78998 8.53723C6.97562 8.53793 7.18217 8.53955 7.46185 8.64172C7.73357 8.74104 8.06299 8.93029 8.52045 9.27942C8.98526 9.63421 9.38992 10.0434 9.77045 10.4484C10.1552 10.8578 10.5092 11.2567 10.8896 11.6154C10.9851 11.7058 10.9896 11.8565 10.8994 11.9523C10.809 12.0477 10.6582 12.0521 10.5624 11.962C10.1682 11.5902 9.79508 11.1717 9.42279 10.7755C9.04628 10.3748 8.66286 9.98939 8.23041 9.6593C7.79034 9.32344 7.50504 9.16572 7.29779 9.08997C7.09893 9.01737 6.96078 9.01542 6.78802 9.01477C6.06165 9.01203 5.34192 9.0165 4.67377 8.86926C4.39203 8.80718 4.11368 8.7441 3.85931 8.67883C3.89455 8.58386 3.90444 8.48791 3.90717 8.40833C3.90966 8.33384 3.89934 8.26184 3.8847 8.19348ZM1.94427 3.7511C2.07606 3.7511 2.18256 3.85759 2.18256 3.98938C2.18256 4.00773 2.18365 4.41437 2.18646 5.09387C2.18049 5.09216 2.17481 5.08957 2.16888 5.08801C2.00817 5.04603 1.85359 5.07246 1.7099 5.12708C1.70696 4.42778 1.70599 4.00828 1.70599 3.98938C1.70599 3.85767 1.81259 3.75122 1.94427 3.7511Z" fill="black"/>
<path d="M3.51276 1.80817C3.52423 2.94087 3.91073 3.41741 4.34121 3.82451C4.92487 4.37648 5.42428 4.41676 5.63497 4.64205C5.74276 4.75732 6.08868 5.68698 6.6151 7.02426C6.97774 7.83138 7.0906 8.02111 7.21701 8.23052C7.30595 8.38322 7.44523 8.6302 7.63048 8.95084" stroke="black" stroke-width="0.477254" stroke-linecap="round"/>
<path d="M9.39306 10.4561C9.38802 10.4561 9.38298 10.4561 8.39008 10.4861C7.39718 10.516 5.41657 10.5759 4.30133 10.5975C2.99623 10.6006 2.71057 10.568 2.49138 10.5247C2.36224 10.4949 2.19675 10.4495 2.02625 10.4026" stroke="black" stroke-width="0.477254" stroke-linecap="round"/>
<path d="M3.72292 10.6682C3.72796 10.6682 3.7277 10.7435 3.70392 10.8943C3.64411 11.0432 3.54649 11.2212 3.43994 11.4024C3.39093 11.4811 3.35221 11.533 3.30365 11.5943" stroke="black" stroke-width="0.477254" stroke-linecap="round"/>
<path d="M5.56687 1.49367C5.85286 1.47406 6.46075 1.4662 6.46075 1.47001C6.37292 1.35535 6.34314 1.30637 6.32935 1.19457C6.31555 1.08277 6.31768 0.913279 6.3292 0.801525C6.42141 0.548122 6.62014 0.232932 6.90935 0.238726C7.37956 0.248146 7.68585 0.274931 7.8382 0.464573C7.91155 0.555885 7.96019 0.672988 7.92805 0.817749C7.83586 1.23287 7.52856 1.80815 7.67413 1.74152C7.78128 1.69247 7.96333 1.61938 8.13678 1.65661C8.26614 1.68437 8.39052 1.73422 8.48267 1.84797C8.68649 2.09957 8.8848 2.36009 8.79458 2.69224C8.72679 2.94181 8.63271 3.30727 8.37412 3.30338C8.06637 3.29876 7.49777 2.99702 7.45899 3.22188C7.4271 3.40677 7.4014 3.68518 7.25535 3.8687C7.16689 3.97986 7.07895 4.05887 6.9452 4.05663C6.57216 4.0504 6.27166 4.05586 6.07944 3.83424C5.9852 3.72558 5.90819 3.53643 5.96737 3.34137C6.04026 3.10116 6.45986 2.76046 6.29775 2.73907C6.15754 2.72057 5.85492 2.72217 5.62801 2.56319C5.52117 2.48834 5.39843 2.39939 5.39202 2.25879C5.38366 2.07563 5.36519 1.84457 5.40745 1.64373C5.42503 1.56018 5.45664 1.50123 5.56687 1.49367Z" stroke="black" stroke-width="0.477254" stroke-linecap="round" stroke-linejoin="round"/>
<path d="M0.897175 7.49849C1.11519 7.31236 1.59875 6.9439 1.60102 6.94696C1.46217 6.90719 1.40907 6.88559 1.33139 6.80401C1.2537 6.72243 1.15443 6.58504 1.09711 6.48842C1.02021 6.22996 0.992044 5.85841 1.22778 5.69077C1.61105 5.41821 1.87302 5.25725 2.10835 5.3188C2.22166 5.34844 2.3305 5.41351 2.39092 5.54893C2.56419 5.93727 2.6601 6.58239 2.73732 6.44214C2.79416 6.33892 2.89683 6.17176 3.05832 6.09833C3.17876 6.04356 3.30835 6.00949 3.45014 6.04596C3.76373 6.12661 4.0782 6.21771 4.20362 6.53823C4.29786 6.77906 4.44002 7.12863 4.23001 7.27957C3.98008 7.4592 3.34364 7.5556 3.44645 7.7593C3.53099 7.9268 3.6762 8.16572 3.66824 8.40012C3.66341 8.54211 3.63985 8.65795 3.5311 8.73584C3.22777 8.95308 2.98967 9.13648 2.70325 9.073C2.56283 9.04187 2.38829 8.93583 2.31962 8.74391C2.23505 8.50755 2.36909 7.98393 2.22614 8.06333C2.10251 8.132 1.8604 8.31357 1.58345 8.32107C1.45304 8.3246 1.30147 8.32628 1.21257 8.21718C1.09674 8.07504 0.944243 7.90047 0.858531 7.71398C0.822874 7.6364 0.813143 7.57023 0.897175 7.49849Z" stroke="black" stroke-width="0.477254" stroke-linecap="round" stroke-linejoin="round"/>
</svg>
