<svg width="14" height="14" viewBox="0 0 14 14" fill="none" xmlns="http://www.w3.org/2000/svg">
<path d="M1.75 11.375V3.5C1.75 3.38397 1.79609 3.27269 1.87814 3.19064C1.96019 3.10859 2.07147 3.0625 2.1875 3.0625H5.10417C5.19883 3.0625 5.29094 3.0932 5.36667 3.15L6.88333 4.2875C6.95906 4.3443 7.05117 4.375 7.14583 4.375H10.9375C11.0535 4.375 11.1648 4.42109 11.2469 4.50314C11.3289 4.58519 11.375 4.69647 11.375 4.8125V6.125" stroke="black" stroke-width="0.875" stroke-linecap="round" stroke-linejoin="round"/>
<path d="M1.75 11.375L3.40028 6.42415C3.42932 6.33704 3.48503 6.26127 3.55952 6.20758C3.63401 6.15389 3.72351 6.125 3.81533 6.125H12.518C12.5873 6.125 12.6557 6.14147 12.7174 6.17306C12.7791 6.20465 12.8324 6.25045 12.8729 6.30669C12.9135 6.36293 12.94 6.42799 12.9505 6.49652C12.961 6.56505 12.955 6.63508 12.9331 6.70085L11.375 11.375H1.75Z" stroke="black" stroke-width="0.875" stroke-linecap="round" stroke-linejoin="round"/>
</svg>
