<svg width="14" height="14" viewBox="0 0 14 14" fill="none" xmlns="http://www.w3.org/2000/svg">
<path d="M7 7L3.675 4.50625C3.62066 4.4655 3.57656 4.41266 3.54619 4.35191C3.51581 4.29116 3.5 4.22417 3.5 4.15625V2.1875C3.5 2.07147 3.54609 1.96019 3.62814 1.87814C3.71019 1.79609 3.82147 1.75 3.9375 1.75H10.0625C10.1785 1.75 10.2898 1.79609 10.3719 1.87814C10.4539 1.96019 10.5 2.07147 10.5 2.1875V4.13663C10.5 4.20427 10.4843 4.27099 10.4542 4.33155C10.424 4.3921 10.3803 4.44485 10.3263 4.48564L7 7Z" stroke="black" stroke-width="0.875" stroke-linecap="round" stroke-linejoin="round"/>
<path d="M7 7L3.675 9.49375C3.62066 9.5345 3.57656 9.58734 3.54619 9.64809C3.51581 9.70884 3.5 9.77583 3.5 9.84375V11.8125C3.5 11.9285 3.54609 12.0398 3.62814 12.1219C3.71019 12.2039 3.82147 12.25 3.9375 12.25H10.0625C10.1785 12.25 10.2898 12.2039 10.3719 12.1219C10.4539 12.0398 10.5 11.9285 10.5 11.8125V9.86337C10.5 9.79573 10.4843 9.72901 10.4542 9.66845C10.424 9.6079 10.3803 9.55515 10.3263 9.51436L7 7Z" stroke="black" stroke-width="0.875" stroke-linecap="round" stroke-linejoin="round"/>
<path d="M3.5 3.49976H10.5" stroke="black" stroke-width="0.875" stroke-linecap="round" stroke-linejoin="round"/>
</svg>
