<svg width="12" height="11" viewBox="0 0 12 11" fill="none" xmlns="http://www.w3.org/2000/svg">
<path d="M1.07644 2.94494L2.0037 9.12676C2.07194 9.5817 2.53601 9.9231 3.08618 9.9231H5.72306H6.12313H8.76001C9.31018 9.9231 9.77425 9.5817 9.84249 9.12676L10.7698 2.94494C10.8511 2.40235 10.3435 1.9231 9.68728 1.9231H2.15891C1.50274 1.9231 0.995048 2.40235 1.07644 2.94494Z" fill="white"/>
<path d="M10.9231 1.9231H2.15891C1.50274 1.9231 0.995048 2.40235 1.07644 2.94494L2.0037 9.12676C2.07194 9.5817 2.53601 9.9231 3.08618 9.9231H6.12313M0.923096 1.9231H9.68728C10.3435 1.9231 10.8511 2.40235 10.7698 2.94494L9.84249 9.12676C9.77425 9.5817 9.31018 9.9231 8.76001 9.9231H5.72307" stroke="black" stroke-width="1.07692"/>
<rect x="0.538462" y="0.538462" width="10.7692" height="3.66154" rx="0.538462" fill="white" stroke="black" stroke-width="1.07692"/>
</svg>
