<svg width="24" height="24" viewBox="0 0 24 24" fill="none" xmlns="http://www.w3.org/2000/svg">
<path d="M9.99998 20.1014L13.6047 4" stroke="black"/>
<path d="M14.201 13.3064L9 9" stroke="black"/>
<path d="M6.07644 13.9449L7.0037 20.1268C7.07194 20.5817 7.53601 20.9231 8.08618 20.9231H10.7231H11.1231H13.76C14.3102 20.9231 14.7742 20.5817 14.8425 20.1268L15.7698 13.9449C15.8511 13.4024 15.3435 12.9231 14.6873 12.9231H7.15891C6.50274 12.9231 5.99505 13.4024 6.07644 13.9449Z" fill="white"/>
<path d="M15.9231 12.9231H7.15891C6.50274 12.9231 5.99505 13.4024 6.07644 13.9449L7.0037 20.1268C7.07194 20.5817 7.53601 20.9231 8.08618 20.9231H11.1231M5.9231 12.9231H14.6873C15.3435 12.9231 15.8511 13.4024 15.7698 13.9449L14.8425 20.1268C14.7742 20.5817 14.3102 20.9231 13.76 20.9231H10.7231" stroke="black" stroke-width="1.07692"/>
<rect x="5.53846" y="11.5385" width="10.7692" height="3.66154" rx="0.538462" fill="white" stroke="black" stroke-width="1.07692"/>
<path d="M12.5 9L16.5 6" stroke="black"/>
<path d="M15.8834 7.94442C14.2834 7.14442 15.2168 5.94442 15.8834 5.44442C17 4.60703 17.9937 4.67956 18.5 6.00002C18.8834 7.00002 19.0501 7.77775 18.8834 8.94442C18.5501 8.94442 17.4834 8.74442 15.8834 7.94442Z" fill="white" stroke="black"/>
</svg>
