<svg width="14" height="14" viewBox="0 0 14 14" fill="none" xmlns="http://www.w3.org/2000/svg">
<path d="M3.28125 5.6875C4.12694 5.6875 4.8125 5.00194 4.8125 4.15625C4.8125 3.31056 4.12694 2.625 3.28125 2.625C2.43556 2.625 1.75 3.31056 1.75 4.15625C1.75 5.00194 2.43556 5.6875 3.28125 5.6875Z" stroke="black" stroke-width="0.875" stroke-linecap="round" stroke-linejoin="round"/>
<path d="M3.28125 11.375C4.12694 11.375 4.8125 10.6894 4.8125 9.84375C4.8125 8.99806 4.12694 8.3125 3.28125 8.3125C2.43556 8.3125 1.75 8.99806 1.75 9.84375C1.75 10.6894 2.43556 11.375 3.28125 11.375Z" stroke="black" stroke-width="0.875" stroke-linecap="round" stroke-linejoin="round"/>
<path d="M7.43752 7L4.54492 8.97915" stroke="black" stroke-width="0.875" stroke-linecap="round" stroke-linejoin="round"/>
<path d="M12.6875 3.4079L8.98706 5.93979" stroke="black" stroke-width="0.875" stroke-linecap="round" stroke-linejoin="round"/>
<path d="M12.6876 10.5921L4.54492 5.02081" stroke="black" stroke-width="0.875" stroke-linecap="round" stroke-linejoin="round"/>
</svg>
